<?xml version="1.0" standalone="no"?>
<!DOCTYPE svg PUBLIC "-//W3C//DTD SVG 20010904//EN"
 "http://www.w3.org/TR/2001/REC-SVG-20010904/DTD/svg10.dtd">
<svg version="1.0" xmlns="http://www.w3.org/2000/svg"
 width="700.000000pt" height="700.000000pt" viewBox="0 0 700.000000 700.000000"
 preserveAspectRatio="xMidYMid meet">
<metadata>
Created by potrace 1.11, written by Peter Selinger 2001-2013
</metadata>
<g transform="translate(0.000000,700.000000) scale(0.100000,-0.100000)"
fill="#000000" stroke="none">
<path d="M2 5323 l3 -1678 313 -1 312 -1 0 524 0 523 823 1 c452 0 836 3 852
5 120 17 181 30 258 55 92 30 239 99 264 124 8 8 18 15 22 15 5 0 39 25 77 56
216 177 352 400 411 674 23 112 23 354 -1 455 -9 39 -19 80 -21 93 -9 41 -66
175 -97 232 -123 219 -327 406 -549 501 -77 34 -130 50 -274 86 -16 4 -562 9
-1213 10 l-1182 4 2 -1678z m2308 1032 c198 -52 353 -216 391 -413 48 -251
-98 -500 -347 -594 l-59 -23 -832 -3 -833 -2 0 525 0 525 813 0 c674 0 821 -3
867 -15z"/>
<path d="M3644 5323 l1 -1678 80 2 c204 5 443 65 648 164 93 44 90 43 210 123
306 205 537 510 653 863 36 109 70 270 77 366 7 75 14 83 16 16 0 -29 3 -59 5
-68 3 -9 7 -37 11 -63 6 -54 41 -203 54 -233 5 -11 19 -49 31 -85 33 -98 132
-283 208 -390 137 -192 407 -426 587 -509 11 -5 50 -23 88 -40 178 -84 386
-133 611 -146 l76 -5 -2 1678 -3 1677 -75 -1 c-85 -1 -168 -9 -231 -23 -24 -5
-55 -12 -69 -15 -63 -12 -205 -58 -286 -94 -413 -181 -734 -514 -898 -932 -37
-97 -79 -248 -91 -330 -3 -25 -8 -54 -10 -65 -2 -11 -4 -35 -4 -52 -1 -18 -6
-33 -11 -33 -6 0 -9 3 -8 8 1 4 -1 39 -6 79 -22 218 -125 498 -256 698 -294
449 -784 732 -1315 761 l-93 5 2 -1678z"/>
<path d="M0 2938 l0 -423 68 -2 c133 -4 322 -76 443 -169 178 -137 304 -360
325 -575 9 -92 9 -89 0 -175 -36 -366 -327 -680 -686 -740 -25 -4 -48 -9 -52
-10 -5 -1 -28 -2 -53 -3 l-45 -1 0 -420 0 -420 1678 0 1679 0 0 418 0 417 -91
12 c-108 14 -114 16 -190 42 -247 87 -448 303 -527 566 -28 93 -35 285 -15
382 34 162 102 293 211 411 142 154 367 261 554 266 l58 1 0 423 0 422 -1679
0 -1678 0 0 -422z"/>
<path d="M5562 1924 l1433 -1433 3 482 2 481 -951 952 -952 951 -484 0 -484 0
1433 -1433z"/>
<path d="M6070 3352 c0 -2 209 -214 465 -470 l465 -464 -2 468 -3 469 -462 1
c-255 1 -463 -1 -463 -4z"/>
<path d="M3642 2398 l0 -483 957 -958 957 -957 481 2 481 3 -1438 1438 -1438
1438 0 -483z"/>
<path d="M3642 475 l0 -475 474 0 c261 0 474 1 474 3 0 1 -213 215 -474 475
l-473 472 -1 -475z"/>
</g>
</svg>
