<?xml version="1.0" encoding="UTF-8"?>
<svg width="16px" height="16px" viewBox="0 0 16 16" version="1.1" xmlns="http://www.w3.org/2000/svg" xmlns:xlink="http://www.w3.org/1999/xlink">
    <title>icon/16/circle-remove</title>
    <g id="CERT---PBI-85912-+-69941-Audit-Doc-Upload-&amp;-Submission" stroke="none" stroke-width="1" fill="none" fill-rule="evenodd">
        <g id="Application-Audit/candidate-interface" transform="translate(-1269.000000, -692.000000)" fill="#4F17A8">
            <g id="icon/16/circle-remove" transform="translate(1267.000000, 690.000000)">
                <path d="M10,2.5 C5.85786438,2.5 2.5,5.85786438 2.5,10 C2.5,14.1421356 5.85786438,17.5 10,17.5 C14.1421356,17.5 17.5,14.1421356 17.5,10 C17.5,8.01087633 16.7098237,6.10322198 15.3033009,4.69669914 C13.896778,3.2901763 11.9891237,2.5 10,2.5 Z M12.983125,11.6573313 C13.1661528,11.840363 13.1661528,12.137112 12.983125,12.3201437 L12.3201625,12.9829563 C12.2322701,13.0708867 12.1130396,13.1203449 11.9887141,13.1203449 C11.8643885,13.1203449 11.745158,13.0708867 11.6572656,12.9829563 L10,11.3257938 L8.342725,12.9830125 C8.2548326,13.0709429 8.13560209,13.1203449 8.01127656,13.1203449 C7.88695104,13.1203449 7.76772053,13.0709429 7.67982812,12.9830125 L7.01686562,12.3202 C6.83383786,12.1371682 6.83383786,11.8404193 7.01686562,11.6573875 L8.67414063,10 L7.016875,8.34266875 C6.83384723,8.15963695 6.83384723,7.86288805 7.016875,7.67985625 L7.67982813,7.016875 C7.86290816,6.83388415 8.15964496,6.83388415 8.342725,7.016875 L10,8.67408437 L11.657275,7.016875 C11.840355,6.83388415 12.1370918,6.83388415 12.3201719,7.016875 L12.9831344,7.6798375 C13.1661621,7.8628693 13.1661621,8.1596182 12.9831344,8.34265 L11.3258594,10 L12.983125,11.6573313 Z" id="Fill"></path>
            </g>
        </g>
    </g>
</svg>