<?xml version="1.0" encoding="UTF-8"?>
<svg width="16px" height="16px" viewBox="0 0 16 16" version="1.1" xmlns="http://www.w3.org/2000/svg" xmlns:xlink="http://www.w3.org/1999/xlink">
    <title>icon/16/compass/filled</title>
    <g id="icon/16/compass/filled" stroke="none" stroke-width="1" fill="none" fill-rule="evenodd">
        <path d="M10.9709239,5.37904801 L7.60058702,11.8605187 C7.55495784,11.9476297 7.46525503,12 7.37088559,12 C7.22984996,12 7.11162891,11.8859261 7.11162891,11.7407412 L7.11162891,8.88889404 L4.25980538,8.88889404 C4.14002879,8.88889404 4.0358076,8.80748677 4.00728937,8.69185733 C3.97928964,8.57519086 4.03373355,8.45489476 4.14002879,8.39941337 L10.6214459,5.02904859 C10.7210005,4.97719682 10.8433696,4.99586346 10.9242577,5.07623369 C11.0041088,5.15608541 11.0227753,5.2789741 10.9709239,5.37904801 M8,2 C4.691,2 2,4.6915 2,8 C2,11.308 4.691,14 8,14 C11.308,14 14,11.308 14,8 C14,4.6915 11.308,2 8,2" id="Fill" fill="#4f17a7"></path>
    </g>
</svg>