<?xml version="1.0" encoding="UTF-8"?>
<svg width="16px" height="16px" viewBox="0 0 16 16" version="1.1"
  xmlns="http://www.w3.org/2000/svg"
  xmlns:xlink="http://www.w3.org/1999/xlink">
  <g id="icon/16/circle-info" stroke="none" stroke-width="1" fill="none" fill-rule="evenodd">
    <path d="M8,2 C4.6862915,2 2,4.6862915 2,8 C2,11.3137085 4.6862915,14 8,14 C11.3137085,14 14,11.3137085 14,8 C14,6.40870106 13.367859,4.88257758 12.2426407,3.75735931 C11.1174224,2.63214104 9.59129894,2 8,2 Z M7.0664975,5.283995 L7.2539975,4.533995 C7.29573719,4.36707535 7.44572579,4.24998498 7.617785,4.25 L8.644715,4.25 C8.76020012,4.25 8.86924367,4.30321185 8.94030755,4.39424336 C9.01137144,4.48527487 9.03652843,4.60397215 9.0085025,4.716005 L8.8210025,5.466005 C8.77923185,5.63290452 8.6292622,5.7499801 8.457215,5.75 L7.430285,5.75 C7.31479988,5.75 7.20575633,5.69678815 7.13469245,5.60575664 C7.06362856,5.51472513 7.03847157,5.39602785 7.0664975,5.283995 L7.0664975,5.283995 Z M9.083525,9.966005 L8.896025,10.716005 C8.85422409,10.8829038 8.70424631,11 8.5321925,11 L6.755285,11 C6.63980647,11 6.53077369,10.9467717 6.45971841,10.8557419 C6.38866313,10.764712 6.36351067,10.6460215 6.391535,10.533995 L7.025,8 L6.6803075,8 C6.56481448,8.00001312 6.455758,7.94680785 6.38468379,7.85577438 C6.31360959,7.7647409 6.28844715,7.64603551 6.316475,7.533995 L6.503975,6.783995 C6.54573305,6.61706836 6.69573706,6.5 6.8678075,6.5 L8.16443,6.5 C8.39537103,6.5 8.61343918,6.60637436 8.7555713,6.78839694 C8.89770342,6.97041953 8.94804675,7.20777499 8.8920425,7.4318225 L8.375,9.5 L8.7196925,9.5 C8.83518552,9.49998688 8.944242,9.55319215 9.01531621,9.64422562 C9.08639041,9.7352591 9.11155285,9.85396449 9.083525,9.966005 L9.083525,9.966005 Z" id="Fill" fill="#212121"></path>
  </g>
</svg>