<?xml version="1.0" encoding="UTF-8"?>
<svg viewBox="0 0 25 18" version="1.1" xmlns="http://www.w3.org/2000/svg" xmlns:xlink="http://www.w3.org/1999/xlink">
    <title>Combined Shape</title>
    <g id="CERT---PBI-85912-+-69941-Audit-Doc-Upload-&amp;-Submission" stroke="none" stroke-width="1" fill="none" fill-rule="evenodd">
        <g id="Application-Audit/candidate-interface" transform="translate(-1217.000000, -859.000000)" fill="#4F17A8">
            <g id="Group-Copy" transform="translate(1217.000000, 858.000000)">
                <path d="M14.1304348,1 C17.4345411,1 20.1647642,3.466021 20.5935778,6.66425484 C23.1329432,7.35698816 25,9.6869367 25,12.4545455 C25,14.4026044 24.0749774,16.1338271 22.6417219,17.2299084 C21.6949549,18.3147761 20.3024987,19 18.75,19 L14.673,18.999 L14.673913,14.0909091 L16.7369482,14.0909091 C16.808847,14.0909091 16.8778154,14.0624147 16.9287477,14.011667 C17.0350609,13.905739 17.0353731,13.7336836 16.9294452,13.6273704 L16.9294452,13.6273704 L12.884994,9.56821214 C12.8845299,9.56774633 12.8840649,9.56728136 12.8835991,9.56681724 C12.6709728,9.35496132 12.3268619,9.35558584 12.115006,9.56821214 L12.115006,9.56821214 L8.07055483,13.6273704 C8.01980704,13.6783027 7.9913127,13.7472711 7.9913127,13.81917 C7.9913127,13.9692473 8.11297445,14.0909091 8.26305183,14.0909091 L8.26305183,14.0909091 L10.326087,14.0909091 L10.326,18.999 L5.16304348,19 C2.3115733,19 3.49204382e-16,16.6884267 0,13.8369565 L0,13.7994071 C-2.67024857e-16,11.6189837 1.35161089,9.7542459 3.26269544,8.99733098 L3.26086957,8.90909091 C3.26086957,6.64974421 5.08579586,4.81818182 7.33695652,4.81818182 C7.61982488,4.81818182 7.8959634,4.84710043 8.16259714,4.90215261 C9.17392411,2.60418983 11.4655189,1 14.1304348,1 Z" id="Combined-Shape"></path>
            </g>
        </g>
    </g>
</svg>